<svg width="46" height="52" viewBox="0 0 46 52" fill="none" xmlns="http://www.w3.org/2000/svg">
<path d="M37.5038 1C29.7295 1 29.538 5.98617 30.0634 8.96579C30.2806 10.0308 30.6453 11.0602 31.1471 12.0243L37.5192 24.3863L43.8922 12.7689C44.5889 11.4444 45.0155 9.99464 45.1469 8.50384C45.5013 5.31732 44.6727 1 37.5038 1ZM37.5038 11.6258C36.8234 11.6353 36.1555 11.4428 35.5845 11.0727C35.0135 10.7025 34.5651 10.1714 34.296 9.54645C34.0269 8.92149 33.9491 8.23076 34.0725 7.5616C34.1959 6.89244 34.515 6.2749 34.9894 5.78707C35.4637 5.29924 36.0721 4.96302 36.7375 4.82093C37.403 4.67884 38.0956 4.73726 38.7279 4.98881C39.3601 5.24035 39.9036 5.67372 40.2895 6.23412C40.6755 6.79451 40.8866 7.45677 40.8962 8.13715C40.8962 8.15354 40.8962 8.1689 40.8962 8.18427C40.9045 8.63637 40.8236 9.08568 40.6582 9.50653C40.4928 9.92738 40.2461 10.3115 39.9322 10.637C39.6183 10.9625 39.2434 11.223 38.8288 11.4035C38.4143 11.5841 37.9682 11.6812 37.5161 11.6893H37.4515L37.5038 11.6258Z" fill="#FEC74F" stroke="#FEC74F" stroke-width="0.5" stroke-linecap="round" stroke-linejoin="round"/>
<path d="M41.905 20.916C42.6612 21.749 43.1582 22.7844 43.3352 23.8955C43.5123 25.0066 43.3615 26.1451 42.9016 27.1719C42.4416 28.1987 41.6923 29.0691 40.7454 29.6767C39.7985 30.2843 38.695 30.6027 37.57 30.5929C36.4449 30.5831 35.3471 30.2457 34.4109 29.6217C33.4747 28.9978 32.7406 28.1145 32.2985 27.0799C31.8564 26.0453 31.7255 24.9043 31.9217 23.7965C32.118 22.6887 32.6329 21.6621 33.4035 20.8423" stroke="#002A3F" stroke-width="2" stroke-linecap="round" stroke-linejoin="round"/>
<path d="M28.1439 46.2627C31.4249 46.2627 34.0847 43.6029 34.0847 40.3219C34.0847 37.0409 31.4249 34.3811 28.1439 34.3811C24.8629 34.3811 22.2031 37.0409 22.2031 40.3219C22.2031 43.6029 24.8629 46.2627 28.1439 46.2627Z" stroke="#002A3F" stroke-width="2" stroke-linecap="round" stroke-linejoin="round"/>
<path d="M11.9603 25.265C15.2413 25.265 17.9011 22.6052 17.9011 19.3242C17.9011 16.0432 15.2413 13.3834 11.9603 13.3834C8.67932 13.3834 6.01953 16.0432 6.01953 19.3242C6.01953 22.6052 8.67932 25.265 11.9603 25.265Z" stroke="#002A3F" stroke-width="2" stroke-linecap="round" stroke-linejoin="round"/>
<path d="M6.9408 50.3597C10.2218 50.3597 12.8816 47.7 12.8816 44.4189C12.8816 41.1379 10.2218 38.4781 6.9408 38.4781C3.65979 38.4781 1 41.1379 1 44.4189C1 47.7 3.65979 50.3597 6.9408 50.3597Z" stroke="#002A3F" stroke-width="2" stroke-linecap="round" stroke-linejoin="round"/>
<path d="M7.99121 38.5704L10.5949 25.1073" stroke="#002A3F" stroke-width="2" stroke-linecap="round" stroke-linejoin="round"/>
<path d="M24.7064 35.476L15.8525 23.8126" stroke="#002A3F" stroke-width="2" stroke-miterlimit="10"/>
<path d="M34.8414 29.8835L31.8311 35.6635" stroke="#002A3F" stroke-width="2" stroke-linecap="round" stroke-linejoin="round"/>
<path d="M6.94127 46.4286C8.05116 46.4286 8.9509 45.5288 8.9509 44.4189C8.9509 43.309 8.05116 42.4093 6.94127 42.4093C5.83138 42.4093 4.93164 43.309 4.93164 44.4189C4.93164 45.5288 5.83138 46.4286 6.94127 46.4286Z" stroke="#002A3F" stroke-width="2" stroke-linecap="round" stroke-linejoin="round"/>
<path d="M11.9598 21.3338C13.0697 21.3338 13.9694 20.4341 13.9694 19.3242C13.9694 18.2143 13.0697 17.3146 11.9598 17.3146C10.8499 17.3146 9.9502 18.2143 9.9502 19.3242C9.9502 20.4341 10.8499 21.3338 11.9598 21.3338Z" stroke="#002A3F" stroke-width="2" stroke-linecap="round" stroke-linejoin="round"/>
<path d="M28.1434 42.3315C29.2533 42.3315 30.153 41.4318 30.153 40.3219C30.153 39.212 29.2533 38.3123 28.1434 38.3123C27.0335 38.3123 26.1338 39.212 26.1338 40.3219C26.1338 41.4318 27.0335 42.3315 28.1434 42.3315Z" stroke="#002A3F" stroke-width="2" stroke-linecap="round" stroke-linejoin="round"/>
<path d="M39.3997 25.3942C39.2702 25.8628 38.9753 26.2685 38.5695 26.5363C38.1638 26.8042 37.6748 26.9159 37.193 26.851C36.7113 26.786 36.2693 26.5486 35.9491 26.1829C35.6288 25.8171 35.452 25.3477 35.4512 24.8616" stroke="#002A3F" stroke-width="2" stroke-linecap="round" stroke-linejoin="round"/>
</svg>
