<svg width="37" height="57" viewBox="0 0 37 57" fill="none" xmlns="http://www.w3.org/2000/svg">
<path d="M21.008 3.64087V11.0094" stroke="#FEC74F" stroke-width="2" stroke-linecap="round" stroke-linejoin="round"/>
<path d="M14.8149 3.64087L14.816 11.0127" stroke="#FEC74F" stroke-width="2" stroke-linecap="round" stroke-linejoin="round"/>
<path d="M11.9365 4.68457V9.37905" stroke="#FEC74F" stroke-width="2" stroke-linecap="round" stroke-linejoin="round"/>
<path d="M24.0127 4.74719V9.48891" stroke="#FEC74F" stroke-width="2" stroke-linecap="round" stroke-linejoin="round"/>
<path d="M7.71771 29.683C6.14116 30.0126 2.69474 30.0269 2.05643 26.2102C1.41812 22.3936 3.8516 21.006 3.8516 21.006" stroke="#214557" stroke-width="2" stroke-linecap="round" stroke-linejoin="round"/>
<path d="M30.2112 29.7621C31.7087 29.5479 33.2984 28.6811 33.7115 26.2102C34.3487 22.3936 31.9273 20.8719 31.9273 20.8719" stroke="#214557" stroke-width="2" stroke-linecap="round" stroke-linejoin="round"/>
<path d="M28.3666 24.7633C28.3666 24.7633 29.5565 34.9587 21.2881 37.68C19.0758 38.4069 16.6889 38.4069 14.4765 37.68C6.2115 34.9587 7.40132 24.7633 7.40132 24.7633" stroke="#214557" stroke-width="2" stroke-linecap="round" stroke-linejoin="round"/>
<path d="M23.0251 36.9318C23.0251 36.9318 24.0655 45.9142 18.2614 45.9142C12.4573 45.9142 13.39 37.2548 13.39 37.2548" stroke="#214557" stroke-width="2" stroke-linecap="round" stroke-linejoin="round"/>
<path d="M23.0229 40.0574C25.7002 40.387 29.6455 42.7666 31.6867 45.3231C34.8036 49.2233 35.5221 55.9997 35.5221 55.9997H0.999573C0.999573 55.9997 1.71808 49.2233 4.83382 45.3231C7.94955 41.423 13.3351 39.9849 13.3351 39.9849" stroke="#214557" stroke-width="2" stroke-linecap="round" stroke-linejoin="round"/>
<path d="M6.87839 55.9998V43.2996" stroke="#214557" stroke-width="2" stroke-miterlimit="10"/>
<path d="M29.4894 55.9998V43.1644" stroke="#214557" stroke-width="2" stroke-miterlimit="10"/>
<path d="M11.7421 40.5353C11.7421 40.5353 11.7937 48.8487 18.2647 48.8487" stroke="#214557" stroke-width="2" stroke-linecap="round" stroke-linejoin="round"/>
<path d="M24.7939 40.5353C24.7939 40.5353 24.7422 48.8487 18.2712 48.8487" stroke="#214557" stroke-width="2" stroke-linecap="round" stroke-linejoin="round"/>
<path d="M29.4894 53.031H6.87836" stroke="#214557" stroke-width="2" stroke-miterlimit="10"/>
<path d="M17.1737 48.7642V55.9998" stroke="#214557" stroke-width="2" stroke-miterlimit="10"/>
<path d="M19.5874 48.7642V55.9998" stroke="#214557" stroke-width="2" stroke-miterlimit="10"/>
<path d="M30.9682 17.0443C32.1767 17.0443 34.085 17.1541 34.085 19.0218C34.085 19.0405 34.085 19.0592 34.085 19.0767C34.0804 19.3427 34.0185 19.6045 33.9036 19.8444C33.7887 20.0843 33.6234 20.2967 33.4191 20.467C33.2148 20.6374 32.9762 20.7617 32.7195 20.8316C32.4629 20.9014 32.1942 20.9152 31.9317 20.8719C30.1574 20.5819 25.2059 19.9007 17.9362 19.9007C8.70761 19.9007 3.87361 20.9994 3.87361 20.9994H3.86702C2.63544 21.1158 1.73016 20.3336 1.71259 19.2042V19.1492C1.71259 17.2816 3.62092 17.1717 4.82942 17.1717L4.9316 18.2484C4.9316 18.2484 3.3935 6.60281 14.8193 3.63649C14.8193 0.990967 16.5343 0.999756 17.8955 0.999756H17.9362C19.2952 0.999756 21.0124 0.999756 21.0124 3.63649C32.4382 6.60281 30.9001 18.2484 30.9001 18.2484" stroke="#FEC74F" stroke-width="2" stroke-linecap="round" stroke-linejoin="round"/>
<path d="M27.4613 17.0773C27.4613 17.0773 23.1195 16.3972 19.616 16.3972C19.616 14.9525 19.1666 15.1228 17.8944 15.1228C16.6222 15.1228 16.1739 14.9525 16.1739 16.3972C12.6704 16.3972 8.32855 17.0773 8.32855 17.0773" stroke="#FEC74F" stroke-width="2" stroke-linecap="round" stroke-linejoin="round"/>
</svg>
