<svg width="47" height="52" viewBox="0 0 47 52" fill="none" xmlns="http://www.w3.org/2000/svg">
<path d="M7.75232 42.1541C5.05549 38.8478 3.58534 34.7081 3.59182 30.4389C3.59182 26.4129 3.92633 20.7655 9.78031 16.6617" stroke="#002A3F" stroke-width="2" stroke-miterlimit="10" stroke-linecap="round"/>
<path d="M35.8179 42.9238C32.638 46.4223 28.2437 48.5722 23.5337 48.9336C18.8236 49.2951 14.1535 47.841 10.4785 44.8685" stroke="#002A3F" stroke-width="2" stroke-miterlimit="10" stroke-linecap="round"/>
<path d="M38.9062 22.5905C40.0525 25.0474 40.6446 27.727 40.6407 30.4389C40.6407 31.0179 40.6145 31.5902 40.5621 32.1558" stroke="#002A3F" stroke-width="2" stroke-miterlimit="10" stroke-linecap="round"/>
<path d="M22.1162 11.8878C25.1674 11.8859 28.1717 12.6395 30.8618 14.0816C33.5519 15.5237 35.8442 17.6094 37.5348 20.1533" stroke="#002A3F" stroke-width="2" stroke-miterlimit="10" stroke-linecap="round"/>
<path d="M23.9976 11.9715C23.9976 11.9715 20.7361 15.2378 22.1578 18.7554C23.5795 22.273 21.9905 26.6281 18.3945 26.1256" stroke="#002A3F" stroke-width="2" stroke-linecap="round" stroke-linejoin="round"/>
<path d="M14.1299 25.3719C14.1299 25.3719 10.4502 23.2781 9.69756 26.8794C8.94491 30.4808 4.40055 31.2706 3.66211 28.8242" stroke="#002A3F" stroke-width="2" stroke-linecap="round" stroke-linejoin="round"/>
<path d="M28.7255 13.1038C28.7255 13.1038 22.9936 14.4841 26.4223 18.0016C27.9661 19.5854 28.0113 23.5293 27.4259 24.5343C26.8405 25.5393 25.3352 25.8743 25.3352 27.2144C25.3352 28.5544 27.0914 31.067 29.9347 28.8057C32.7781 26.5444 35.2033 28.3032 35.7887 28.8894C36.3741 29.4757 38.7425 30.6834 40.4435 27.7345" stroke="#002A3F" stroke-width="2" stroke-miterlimit="10"/>
<path d="M5.43164 38.5101C5.43164 38.5101 9.36217 39.2747 10.1148 36.0921C10.8675 32.9096 14.5471 32.9933 14.4635 36.9297C14.3799 40.866 15.7179 42.9514 18.394 43.2948C21.6555 43.7136 23.4736 41.1298 25.3352 40.9498C27.9276 40.6985 29.6495 45.4263 32.886 45.5335" stroke="#002A3F" stroke-width="2" stroke-miterlimit="10"/>
<path d="M18.395 32.1558C18.395 32.1558 17.057 37.9347 19.6494 37.8509C22.2419 37.7671 24.1654 36.5946 23.9981 33.8308C23.8309 31.067 20.0676 27.4656 18.395 32.1558Z" stroke="#002A3F" stroke-width="2" stroke-miterlimit="10"/>
<path d="M37.7959 45.7236H45.4061" stroke="#002A3F" stroke-width="2" stroke-linecap="round" stroke-linejoin="round"/>
<path d="M33.8662 48.0687H38.9675" stroke="#002A3F" stroke-width="2" stroke-linecap="round" stroke-linejoin="round"/>
<path d="M10.0316 48.0687H3.92676" stroke="#002A3F" stroke-width="2" stroke-linecap="round" stroke-linejoin="round"/>
<path d="M1 51H7.02123" stroke="#002A3F" stroke-width="2" stroke-linecap="round" stroke-linejoin="round"/>
<path d="M9.36328 51H13.0429" stroke="#002A3F" stroke-width="2" stroke-linecap="round" stroke-linejoin="round"/>
<path d="M43.065 41.1172H33.0296C33.0296 41.1172 31.4683 41.0461 31.4532 39.3811C31.4407 37.9347 33.0296 37.4087 34.0499 37.4874C34.1285 35.041 35.5468 33.8576 37.5162 33.7002C39.4857 33.5427 41.1407 35.0402 41.3774 36.8559C43.3159 35.6734 45.3146 36.3811 45.3171 38.7504C45.3171 39.9045 44.7752 40.5 44.2592 40.804C43.8963 41.0135 43.4839 41.1217 43.065 41.1172V41.1172Z" stroke="#002A3F" stroke-width="2" stroke-linecap="round" stroke-linejoin="round"/>
<path d="M14.6498 1C7.92359 1 7.75884 5.31993 8.21043 7.90117C8.39945 8.82281 8.71582 9.71357 9.15041 10.5477L14.6632 21.2588L20.176 11.2002C20.7798 10.0515 21.1494 8.79396 21.2631 7.50084C21.5725 4.74037 20.8517 1 14.6498 1ZM14.6498 10.206C14.0613 10.2141 13.4835 10.0472 12.9897 9.72646C12.4958 9.40573 12.108 8.94555 11.8753 8.40411C11.6426 7.86267 11.5754 7.26427 11.6822 6.68459C11.7891 6.10491 12.0651 5.56996 12.4755 5.14738C12.8859 4.72481 13.4121 4.43358 13.9878 4.31051C14.5634 4.18745 15.1625 4.23808 15.7094 4.456C16.2563 4.67393 16.7264 5.04935 17.0603 5.53482C17.3942 6.02029 17.5768 6.594 17.5852 7.18342V7.22529C17.5995 8.01574 17.2998 8.77955 16.7521 9.34885C16.2043 9.91814 15.4533 10.2463 14.664 10.2613H14.608L14.6498 10.206Z" fill="#FEC74F" stroke="#FEC74F" stroke-width="0.5" stroke-linecap="round" stroke-linejoin="round"/>
</svg>
