<svg width="36" height="52" viewBox="0 0 36 52" fill="none" xmlns="http://www.w3.org/2000/svg">
<path d="M7.61589 25.8428C6.06321 26.1483 2.66894 26.1625 2.04138 22.6237C1.41381 19.0849 3.8083 17.7997 3.8083 17.7997" stroke="#002A3F" stroke-width="2" stroke-linecap="round" stroke-linejoin="round"/>
<path d="M29.7695 25.9161C31.2443 25.7175 32.81 24.914 33.2168 22.6237C33.8444 19.0859 31.4596 17.6755 31.4596 17.6755" stroke="#002A3F" stroke-width="2" stroke-linecap="round" stroke-linejoin="round"/>
<path d="M27.951 21.2825C27.951 21.2825 29.1239 30.734 20.9796 33.2554C18.8007 33.9292 16.45 33.9292 14.2711 33.2554C6.12792 30.734 7.29974 21.2825 7.29974 21.2825" stroke="#002A3F" stroke-width="2" stroke-linecap="round" stroke-linejoin="round"/>
<path d="M22.693 32.5618C22.693 32.5618 23.7177 40.888 18.0014 40.888C12.2851 40.888 13.2038 32.8612 13.2038 32.8612" stroke="#002A3F" stroke-width="2" stroke-linecap="round" stroke-linejoin="round"/>
<path d="M22.69 35.4591C25.3268 35.7646 29.2123 37.9704 31.2227 40.3401C34.2924 43.9563 35 50.2366 35 50.2366H1C1 50.2366 1.70764 43.9563 4.77622 40.3401C7.8448 36.7239 13.1488 35.3919 13.1488 35.3919" stroke="#002A3F" stroke-width="2" stroke-linecap="round" stroke-linejoin="round"/>
<path d="M6.79004 50.2367V45.8333" stroke="#002A3F" stroke-width="2" stroke-linecap="round" stroke-linejoin="round"/>
<path d="M29.0586 50.2367V45.8333" stroke="#002A3F" stroke-width="2" stroke-linecap="round" stroke-linejoin="round"/>
<path d="M16.9297 40.7822V50.2366" stroke="#002A3F" stroke-width="2" stroke-miterlimit="10"/>
<path d="M19.3066 40.72V50.2366" stroke="#002A3F" stroke-width="2" stroke-miterlimit="10"/>
<path d="M31.9343 14.2202C31.9343 14.2202 33.21 6.05189 23.7305 2.30432C14.251 -1.44326 6.74292 3.66077 4.78015 7.8381C2.81739 12.0154 3.74575 14.2202 3.74575 14.2202" stroke="#002A3F" stroke-width="2" stroke-miterlimit="10"/>
<path d="M23.2994 13.5329C23.2994 13.5329 26.3932 13.6118 26.6301 14.5555C26.8285 15.3483 26.4787 16.3479 25.1426 16.2047C23.8065 16.0616 22.877 15.2752 22.877 14.5036" stroke="#FEC74F" stroke-width="2" stroke-linecap="round" stroke-linejoin="round"/>
<path d="M11.9917 13.5329C11.9917 13.5329 8.89783 13.6118 8.6609 14.5555C8.46256 15.3483 8.81229 16.3479 10.1484 16.2047C11.4845 16.0616 12.4141 15.2752 12.4141 14.5036" stroke="#FEC74F" stroke-width="2" stroke-linecap="round" stroke-linejoin="round"/>
<path d="M6.24105 17.4147C4.57042 17.6255 3.82167 17.7935 3.82167 17.7935H3.81518C2.60225 17.9015 1.71067 17.1825 1.69336 16.1305V16.0786C1.69336 14.3474 4.29018 14.0134 5.48039 14.0134" stroke="#FEC74F" stroke-width="2" stroke-linecap="round" stroke-linejoin="round"/>
<path d="M29.8251 13.9238C31.0153 13.9238 33.5818 14.2293 33.5818 15.9606C33.5818 15.9779 33.5818 15.9952 33.5818 16.0125C33.5773 16.259 33.5163 16.5017 33.4032 16.724C33.29 16.9463 33.1272 17.1431 32.926 17.3009C32.7247 17.4587 32.4897 17.5739 32.2369 17.6385C31.9841 17.7031 31.7195 17.7158 31.4611 17.6755C30.9428 17.596 30.1497 17.484 29.1045 17.37" stroke="#FEC74F" stroke-width="2" stroke-linecap="round" stroke-linejoin="round"/>
<path d="M17.6299 11.2455C17.6299 11.2455 18.3224 11.3627 18.3743 10.4858C18.3802 10.3526 18.4211 10.2228 18.4933 10.108C18.9532 9.40536 20.4063 9.65689 22.2955 10.1172C24.3957 10.6264 28.9272 11.0337 29.4638 12.2293C29.9183 13.2476 30.3608 17.0339 28.0118 18.4647C28.0118 18.4647 23.9001 21.1593 20.1131 16.8353C20.0969 16.817 20.0806 16.7956 20.0644 16.7752C19.6512 16.2418 19.2691 15.6877 18.9196 15.1153C18.8372 14.9733 18.7156 14.8549 18.5676 14.7724C18.4197 14.69 18.2509 14.6466 18.0789 14.6469H17.6299" stroke="#FEC74F" stroke-width="2" stroke-linecap="round" stroke-linejoin="round"/>
<path d="M17.6853 11.2455C17.6853 11.2455 16.9917 11.3627 16.9398 10.4858C16.9344 10.3525 16.8935 10.2226 16.8208 10.108C16.3609 9.40536 14.9089 9.65689 13.0186 10.1172C10.9195 10.6264 6.38804 11.0337 5.85136 12.2293C5.39691 13.2476 4.95329 17.0339 7.30233 18.4647C7.30233 18.4647 11.414 21.1593 15.201 16.8353C15.2184 16.8162 15.2347 16.7961 15.2497 16.7752C15.6629 16.2418 16.045 15.6877 16.3945 15.1153C16.4773 14.9734 16.5991 14.855 16.7472 14.7726C16.8953 14.6902 17.0642 14.6468 17.2363 14.6469H17.6853" stroke="#FEC74F" stroke-width="2" stroke-linecap="round" stroke-linejoin="round"/>
</svg>
