<svg width="38" height="58" viewBox="0 0 38 58" fill="none" xmlns="http://www.w3.org/2000/svg">
<path d="M7.95597 29.7507C6.32356 30.092 2.75501 30.1079 2.09522 26.1549C1.43543 22.2018 3.95287 20.7662 3.95287 20.7662" stroke="white" stroke-width="2" stroke-linecap="round" stroke-linejoin="round"/>
<path d="M31.2465 29.8326C32.797 29.6108 34.4431 28.7133 34.8708 26.1549C35.5306 22.203 33.0234 20.6274 33.0234 20.6274" stroke="white" stroke-width="2" stroke-linecap="round" stroke-linejoin="round"/>
<path d="M29.3343 24.6567C29.3343 24.6567 30.5674 35.2145 22.0049 38.0311C19.7142 38.7838 17.2428 38.7838 14.952 38.0311C6.3907 35.2145 7.62269 24.6567 7.62269 24.6567" stroke="white" stroke-width="2" stroke-linecap="round" stroke-linejoin="round"/>
<path d="M23.8057 37.2563C23.8057 37.2563 24.883 46.5571 18.8732 46.5571C12.8634 46.5571 13.8292 37.5908 13.8292 37.5908" stroke="white" stroke-width="2" stroke-linecap="round" stroke-linejoin="round"/>
<path d="M23.8034 40.4928C26.5757 40.8341 30.6607 43.298 32.7743 45.9452C36.0016 49.9847 36.7455 57 36.7455 57H0.999756C0.999756 57 1.74373 49.9847 4.96987 45.9452C8.19601 41.9057 13.7724 40.4177 13.7724 40.4177" stroke="white" stroke-width="2" stroke-linecap="round" stroke-linejoin="round"/>
<path d="M7.08688 57V52.0812" stroke="white" stroke-width="2" stroke-linecap="round" stroke-linejoin="round"/>
<path d="M30.4991 57V52.0812" stroke="white" stroke-width="2" stroke-linecap="round" stroke-linejoin="round"/>
<path d="M17.747 46.4388V57" stroke="white" stroke-width="2" stroke-miterlimit="10"/>
<path d="M20.2462 46.3694V57" stroke="white" stroke-width="2" stroke-miterlimit="10"/>
<path d="M33.5228 16.7677C33.5228 16.7677 34.864 7.64324 24.8978 3.45699C14.9315 -0.729254 7.03796 4.97223 4.97441 9.63853C2.91087 14.3048 3.8869 16.7677 3.8869 16.7677" stroke="white" stroke-width="2" stroke-miterlimit="10"/>
<path d="M24.4438 16C24.4438 16 27.6965 16.0882 27.9456 17.1422C28.1541 18.0279 27.7865 19.1445 26.3818 18.9846C24.9771 18.8247 23.9998 17.9463 23.9998 17.0843" stroke="#FEC74F" stroke-width="2" stroke-linecap="round" stroke-linejoin="round"/>
<path d="M12.5557 16C12.5557 16 9.30298 16.0882 9.05388 17.1422C8.84536 18.0279 9.21305 19.1445 10.6177 18.9846C12.0224 18.8247 12.9998 17.9463 12.9998 17.0843" stroke="#FEC74F" stroke-width="2" stroke-linecap="round" stroke-linejoin="round"/>
<path d="M6.51014 20.3362C4.75373 20.5717 3.96654 20.7594 3.96654 20.7594H3.95971C2.6845 20.88 1.74714 20.0769 1.72894 18.9017V18.8437C1.72894 16.9099 4.4591 16.5367 5.71043 16.5367" stroke="#FEC74F" stroke-width="2" stroke-linecap="round" stroke-linejoin="round"/>
<path d="M31.3046 16.4366C32.5559 16.4366 35.2542 16.7779 35.2542 18.7118C35.2542 18.7311 35.2542 18.7505 35.2542 18.7698C35.2494 19.0451 35.1853 19.3162 35.0663 19.5646C34.9473 19.813 34.7762 20.0328 34.5646 20.209C34.3531 20.3853 34.106 20.5139 33.8402 20.5861C33.5745 20.6583 33.2963 20.6724 33.0246 20.6274C32.4797 20.5387 31.6458 20.4136 30.5469 20.2862" stroke="#FEC74F" stroke-width="2" stroke-linecap="round" stroke-linejoin="round"/>
<path d="M18.483 13.4448C18.483 13.4448 19.2111 13.5757 19.2657 12.5962C19.2719 12.4474 19.3149 12.3024 19.3908 12.1742C19.8743 11.3893 21.402 11.6702 23.3882 12.1844C25.5962 12.7532 30.3604 13.2082 30.9246 14.5437C31.4024 15.6813 31.8676 19.9108 29.398 21.5091C29.398 21.5091 25.0752 24.5191 21.0937 19.689C21.0767 19.6685 21.0596 19.6446 21.0426 19.6218C20.6082 19.026 20.2064 18.407 19.839 17.7676C19.7523 17.609 19.6245 17.4767 19.4689 17.3846C19.3134 17.2925 19.1359 17.244 18.9551 17.2443H18.483" stroke="#FEC74F" stroke-width="2" stroke-linecap="round" stroke-linejoin="round"/>
<path d="M18.5422 13.4448C18.5422 13.4448 17.813 13.5757 17.7584 12.5962C17.7527 12.4473 17.7097 12.3022 17.6333 12.1742C17.1498 11.3893 15.6232 11.6702 13.6358 12.1844C11.429 12.7532 6.66484 13.2082 6.1006 14.5437C5.62283 15.6813 5.15642 19.9108 7.62608 21.5091C7.62608 21.5091 11.9488 24.5191 15.9303 19.689C15.9486 19.6676 15.9657 19.6452 15.9815 19.6218C16.4159 19.026 16.8177 18.407 17.1851 17.7676C17.2721 17.6091 17.4002 17.4768 17.5559 17.3848C17.7116 17.2927 17.8892 17.2442 18.0701 17.2443H18.5422" stroke="#FEC74F" stroke-width="2" stroke-linecap="round" stroke-linejoin="round"/>
</svg>
