<svg width="34" height="53" viewBox="0 0 34 53" fill="none" xmlns="http://www.w3.org/2000/svg">
<path d="M7.22712 26.8428C5.76577 27.1483 2.57117 27.1626 1.98052 23.6238C1.38987 20.085 3.64351 18.7998 3.64351 18.7998" stroke="#002A3F" stroke-width="2" stroke-linecap="round" stroke-linejoin="round"/>
<path d="M28.0771 26.9161C29.4652 26.7175 30.9387 25.9141 31.3217 23.6238C31.9123 20.086 29.6678 18.6755 29.6678 18.6755" stroke="#002A3F" stroke-width="2" stroke-linecap="round" stroke-linejoin="round"/>
<path d="M26.3656 22.2826C26.3656 22.2826 27.4695 31.734 19.8043 34.2555C17.7536 34.9293 15.5411 34.9293 13.4904 34.2555C5.82622 31.734 6.92911 22.2826 6.92911 22.2826" stroke="#002A3F" stroke-width="2" stroke-linecap="round" stroke-linejoin="round"/>
<path d="M21.4168 33.5619C21.4168 33.5619 22.3811 41.888 17.0011 41.888C11.6211 41.888 12.4857 33.8613 12.4857 33.8613" stroke="#002A3F" stroke-width="2" stroke-linecap="round" stroke-linejoin="round"/>
<path d="M21.4141 36.4592C23.8958 36.7647 27.5528 38.9705 29.4449 41.3402C32.334 44.9564 33 51.2366 33 51.2366H1C1 51.2366 1.66601 44.9564 4.55409 41.3402C7.44216 37.724 12.4342 36.392 12.4342 36.392" stroke="#002A3F" stroke-width="2" stroke-linecap="round" stroke-linejoin="round"/>
<path d="M6.44922 51.2367V46.8333" stroke="#002A3F" stroke-width="2" stroke-linecap="round" stroke-linejoin="round"/>
<path d="M27.4082 51.2367V46.8333" stroke="#002A3F" stroke-width="2" stroke-linecap="round" stroke-linejoin="round"/>
<path d="M15.9922 41.7822V51.2367" stroke="#002A3F" stroke-width="2" stroke-miterlimit="10"/>
<path d="M18.2295 41.72V51.2366" stroke="#002A3F" stroke-width="2" stroke-miterlimit="10"/>
<path d="M30.1148 15.2202C30.1148 15.2202 31.3154 7.05189 22.3936 3.30432C13.4717 -0.443258 6.40527 4.66077 4.55796 8.8381C2.71065 13.0154 3.58441 15.2202 3.58441 15.2202" stroke="#002A3F" stroke-width="2" stroke-miterlimit="10"/>
<path d="M21.9874 14.533C21.9874 14.533 24.8992 14.6119 25.1222 15.5555C25.3089 16.3483 24.9797 17.3479 23.7222 17.2048C22.4647 17.0617 21.5898 16.2753 21.5898 15.5037" stroke="#FEC74F" stroke-width="2" stroke-linecap="round" stroke-linejoin="round"/>
<path d="M11.3446 14.533C11.3446 14.533 8.4328 14.6119 8.2098 15.5555C8.02313 16.3483 8.35229 17.3479 9.60979 17.2048C10.8673 17.0617 11.7422 16.2753 11.7422 15.5037" stroke="#FEC74F" stroke-width="2" stroke-linecap="round" stroke-linejoin="round"/>
<path d="M5.93252 18.4148C4.36017 18.6256 3.65546 18.7936 3.65546 18.7936H3.64935C2.50777 18.9015 1.66864 18.1826 1.65234 17.1306V17.0787C1.65234 15.3475 4.09641 15.0134 5.21661 15.0134" stroke="#FEC74F" stroke-width="2" stroke-linecap="round" stroke-linejoin="round"/>
<path d="M28.1294 14.9238C29.2496 14.9238 31.6652 15.2293 31.6652 16.9606C31.6652 16.9779 31.6652 16.9952 31.6652 17.0125C31.6609 17.259 31.6035 17.5017 31.497 17.724C31.3905 17.9463 31.2373 18.1431 31.0479 18.3009C30.8585 18.4587 30.6373 18.5739 30.3993 18.6385C30.1614 18.7031 29.9124 18.7158 29.6692 18.6755C29.1814 18.596 28.4349 18.484 27.4512 18.37" stroke="#FEC74F" stroke-width="2" stroke-linecap="round" stroke-linejoin="round"/>
<path d="M16.6514 12.2455C16.6514 12.2455 17.3031 12.3627 17.352 11.4858C17.3576 11.3526 17.3961 11.2228 17.464 11.108C17.8968 10.4054 19.2645 10.6569 21.0425 11.1172C23.0192 11.6264 27.2841 12.0337 27.7892 13.2293C28.2169 14.2476 28.6334 18.0339 26.4226 19.4647C26.4226 19.4647 22.5528 22.1593 18.9885 17.8353C18.9732 17.817 18.958 17.7956 18.9427 17.7752C18.5538 17.2418 18.1941 16.6877 17.8653 16.1153C17.7876 15.9733 17.6732 15.8549 17.5339 15.7724C17.3947 15.69 17.2358 15.6466 17.074 15.6469H16.6514" stroke="#FEC74F" stroke-width="2" stroke-linecap="round" stroke-linejoin="round"/>
<path d="M16.7042 12.2455C16.7042 12.2455 16.0514 12.3627 16.0026 11.4858C15.9975 11.3525 15.9589 11.2226 15.8905 11.108C15.4577 10.4054 14.0911 10.6569 12.312 11.1172C10.3364 11.6264 6.07149 12.0337 5.56639 13.2293C5.13867 14.2476 4.72115 18.0339 6.93201 19.4647C6.93201 19.4647 10.8018 22.1593 14.3661 17.8353C14.3825 17.8162 14.3978 17.7961 14.4119 17.7752C14.8008 17.2418 15.1604 16.6877 15.4893 16.1153C15.5673 15.9734 15.6819 15.855 15.8213 15.7726C15.9607 15.6902 16.1197 15.6468 16.2816 15.6469H16.7042" stroke="#FEC74F" stroke-width="2" stroke-linecap="round" stroke-linejoin="round"/>
</svg>
