<svg width="29" height="27" viewBox="0 0 29 27" fill="none" xmlns="http://www.w3.org/2000/svg">
<path d="M12.873 1.39058C13.3221 0.00861025 15.2772 0.00861049 15.7262 1.39058L17.9367 8.19392C18.1375 8.81196 18.7135 9.2304 19.3633 9.2304H26.5168C27.9699 9.2304 28.574 11.0898 27.3985 11.9439L21.6112 16.1486C21.0855 16.5306 20.8655 17.2076 21.0663 17.8257L23.2768 24.629C23.7259 26.011 22.1441 27.1602 20.9686 26.3061L15.1813 22.1014C14.6556 21.7194 13.9437 21.7194 13.4179 22.1014L7.63066 26.3061C6.45509 27.1602 4.87337 26.011 5.3224 24.629L7.53294 17.8257C7.73375 17.2076 7.51376 16.5306 6.98803 16.1486L1.20076 11.9439C0.0251873 11.0898 0.629351 9.2304 2.08244 9.2304H9.2359C9.88574 9.2304 10.4617 8.81196 10.6625 8.19393L12.873 1.39058Z" fill="#FFF1D3"/>
</svg>
