<svg width="29" height="27" viewBox="0 0 29 27" fill="none" xmlns="http://www.w3.org/2000/svg">
<path d="M13.2734 1.39058C13.7224 0.00861025 15.6776 0.00861049 16.1266 1.39058L18.3371 8.19392C18.5379 8.81196 19.1139 9.2304 19.7637 9.2304H26.9172C28.3703 9.2304 28.9744 11.0898 27.7989 11.9439L22.0116 16.1486C21.4858 16.5306 21.2659 17.2076 21.4667 17.8257L23.6772 24.629C24.1262 26.011 22.5445 27.1602 21.369 26.3061L15.5817 22.1014C15.0559 21.7194 14.3441 21.7194 13.8183 22.1014L8.03105 26.3061C6.85548 27.1602 5.27376 26.011 5.72279 24.629L7.93333 17.8257C8.13414 17.2076 7.91415 16.5306 7.38842 16.1486L1.60115 11.9439C0.425578 11.0898 1.02974 9.2304 2.48283 9.2304H9.63629C10.2861 9.2304 10.8621 8.81196 11.0629 8.19393L13.2734 1.39058Z" fill="#FEC74F"/>
</svg>
