<svg width="40" height="34" viewBox="0 0 40 34" fill="none" xmlns="http://www.w3.org/2000/svg">
<path d="M6.02406 11.7663L1.42313 14.6061C1.42313 14.6061 0.678713 15.0014 1.16465 16.3849C1.65059 17.7684 6.02406 32.8828 6.02406 32.8828C6.02406 32.8828 6.31356 33.4133 7.76104 32.217C9.74487 30.8764 11.8175 29.6738 13.9645 28.6179L23.1974 29.0131L29.2251 22.855L39.1301 22.3869L31.9754 7.39738L23.7971 6.9917L17.79 12.1408L15.35 11.5583L17.79 12.1408L23.1664 29.0443" stroke="white" stroke-width="1.5" stroke-linecap="round" stroke-linejoin="round"/>
<path d="M20.7263 16.9883L18.6895 19.8593" stroke="white" stroke-width="1.5" stroke-linecap="round" stroke-linejoin="round"/>
<path d="M22.8422 14.2396L24.5287 13.0927" stroke="white" stroke-width="1.5" stroke-linecap="round" stroke-linejoin="round"/>
<path d="M27.9814 12.3743L29.9666 12.8424" stroke="white" stroke-width="1.5" stroke-linecap="round" stroke-linejoin="round"/>
<path d="M33.2695 14.4896L35.0479 15.4986" stroke="white" stroke-width="1.5" stroke-linecap="round" stroke-linejoin="round"/>
<path d="M10.001 24.5624L11.0622 24.4988" stroke="white" stroke-width="1.5" stroke-linecap="round" stroke-linejoin="round"/>
<path d="M3.97656 24.072L5.93066 24.6233" stroke="white" stroke-width="1.5" stroke-linecap="round" stroke-linejoin="round"/>
<path d="M14.3123 23.014L16.0151 21.8933" stroke="white" stroke-width="1.5" stroke-linecap="round" stroke-linejoin="round"/>
<path d="M10.563 1C5.5175 1 5.39344 4.25589 5.73463 6.2011C5.87545 6.89651 6.11209 7.56874 6.43769 8.19832L10.5734 16.2704L14.709 8.68722C15.1624 7.82166 15.44 6.874 15.5258 5.89943C15.7533 3.81899 15.2156 1 10.563 1ZM10.563 7.93826C10.12 7.94445 9.68526 7.81796 9.31395 7.57486C8.94263 7.33176 8.65157 6.98305 8.47777 6.57307C8.30398 6.1631 8.2553 5.71038 8.33794 5.27249C8.42057 4.8346 8.63079 4.43134 8.94184 4.11398C9.2529 3.79661 9.65074 3.5795 10.0848 3.49025C10.5188 3.40099 10.9694 3.44363 11.3793 3.61273C11.7892 3.78184 12.1398 4.06977 12.3866 4.43991C12.6334 4.81005 12.7652 5.24568 12.7653 5.69139C12.7708 5.98994 12.717 6.28659 12.6073 6.56401C12.4975 6.84144 12.3339 7.09407 12.126 7.30714C11.918 7.5202 11.67 7.68944 11.3963 7.80495C11.1226 7.92046 10.8288 7.97992 10.532 7.97987L10.563 7.93826Z" fill="#FEC74F" stroke="#FEC74F" stroke-width="0.5" stroke-linecap="round" stroke-linejoin="round"/>
</svg>
