<svg width="17" height="14" viewBox="0 0 17 14" fill="none" xmlns="http://www.w3.org/2000/svg">
<path d="M1.84368 8.37802L1.84317 8.38295C1.2749 8.38295 0.75 7.94601 0.75 7.35185L0.749999 6.68268C0.749999 6.10433 1.24696 5.62221 1.83195 5.62221L11.2712 5.62221L8.52859 2.9897L8.52842 2.98954C8.3282 2.797 8.21244 2.54539 8.21244 2.26163C8.21244 1.98155 8.32536 1.71852 8.52823 1.52345L1.84368 8.37802ZM1.84368 8.37802L11.2381 8.37802L8.52835 10.9937C8.52826 10.9938 8.52817 10.9939 8.52808 10.994C8.32458 11.19 8.21244 11.4564 8.21244 11.7354C8.21244 12.0151 8.32506 12.28 8.52813 12.4759L8.52823 12.476L9.01921 12.9491L9.01925 12.9491C9.22122 13.1437 9.48952 13.25 9.77219 13.25C10.0545 13.25 10.323 13.1446 10.5254 12.9497C10.5254 12.9497 10.5254 12.9497 10.5254 12.9497L15.9343 7.74053L15.9343 7.74052C16.1373 7.545 16.2504 7.28172 16.25 7.00148M1.84368 8.37802L8.52849 1.5232L9.01921 1.05032L9.01939 1.05014C9.22151 0.855771 9.48981 0.750001 9.77219 0.750001C10.0547 0.750001 10.3231 0.855572 10.5253 1.05021L10.5254 1.05028L15.9341 6.25981C15.9342 6.25984 15.9342 6.25986 15.9342 6.25989C15.9342 6.25991 15.9343 6.25993 15.9343 6.25995C16.1379 6.4558 16.2508 6.71987 16.25 7.00148M16.25 7.00148L16 7.00076M16.25 7.00148C16.25 7.001 16.25 7.00052 16.25 7.00004L16 7.00076M16 7.00076C16.0006 7.21231 15.9158 7.41117 15.7608 7.56046L15.7608 6.44001C15.9158 6.58907 16.0006 6.78804 16 7.00076Z" fill="#FEC74F" stroke="#FEC74F" stroke-width="0.5"/>
</svg>
