<svg width="21" height="17" viewBox="0 0 21 17" fill="none" xmlns="http://www.w3.org/2000/svg">
<path d="M1.18044 10.105L1.14766 10.098L15.1999 10.098L10.7824 14.413C10.5661 14.6236 10.4474 14.909 10.4474 15.2085C10.4474 15.5081 10.5661 15.7914 10.7824 16.0026L11.4698 16.6729C11.6859 16.8835 11.9739 17 12.2811 17C12.5884 17 12.8766 16.8844 13.0927 16.6737L20.6652 9.29398C20.8822 9.08248 21.0008 8.80077 21 8.50108C21.0008 8.19973 20.8822 7.91785 20.6652 7.70668L13.0927 0.326311C12.8766 0.115814 12.5886 -7.76765e-07 12.2811 -7.51279e-07C11.9739 -7.2582e-07 11.6859 0.11598 11.4698 0.326311L10.7824 0.996573C10.5661 1.2069 10.4474 1.48779 10.4474 1.78731C10.4474 2.08666 10.5661 2.35274 10.7824 2.56324L15.2498 6.9023L1.16473 6.9023C0.53183 6.9023 1.10489e-06 7.43395 1.16173e-06 8.05047L1.24914e-06 8.99845C1.30599e-06 9.61497 0.547538 10.105 1.18044 10.105Z" fill="#214557"/>
</svg>
