<svg width="15" height="15" viewBox="0 0 15 15" fill="none" xmlns="http://www.w3.org/2000/svg">
<path d="M10.0758 2.99697C9.53625 2.47102 9.02345 1.95367 8.49248 1.45832C8.19877 1.18387 8.02848 0.876905 8.17581 0.489613C8.32314 0.102321 8.67043 0 9.06555 0C10.7321 0.00669393 12.3978 0 14.0643 0.00478138C14.7206 0.00478138 14.9933 0.278276 14.9952 0.934281C15.001 2.59916 14.9952 4.26499 15 5.92986C15 6.32767 14.9043 6.67098 14.5102 6.82207C14.116 6.97316 13.8156 6.80008 13.541 6.5065C13.0455 5.97481 12.5269 5.4632 11.9443 4.86744C11.5444 5.29872 11.1894 5.70131 10.8125 6.08382C9.92085 6.98655 9.01293 7.87397 8.12415 8.78052C7.83714 9.0674 7.60561 9.07888 7.32625 8.78052C6.98088 8.40949 6.62403 8.0461 6.249 7.70567C5.91128 7.40062 5.92276 7.15581 6.249 6.83833C7.41619 5.69558 8.56519 4.53275 9.7209 3.37756C9.83092 3.26472 9.93328 3.14806 10.0758 2.99697Z" fill="white"/>
<path d="M2.96079 10.1889L6.63109 6.50433C7.08847 6.04599 7.15877 6.04505 7.60396 6.4884C7.91263 6.79583 8.22037 7.10358 8.52716 7.41164C8.94986 7.83718 8.94893 7.91404 8.51217 8.34895L5.18209 11.6829C5.07337 11.7917 4.97121 11.906 4.81844 12.0691C5.35455 12.5884 5.87004 13.1002 6.40146 13.5969C6.69108 13.8678 6.83073 14.1743 6.67046 14.5511C6.51018 14.9279 6.19339 15.0019 5.82692 15.0001C4.19516 15.0001 2.56246 15.0001 0.930696 15.0001C0.263369 14.9963 0.00562354 14.7273 0 14.0496C0 12.4328 0 10.8159 0 9.19909C0 8.81292 0.0815413 8.47174 0.468628 8.31802C0.855715 8.1643 1.15001 8.32739 1.41994 8.61514C1.90919 9.13535 2.41906 9.63775 2.96079 10.1889Z" fill="white"/>
</svg>
