<svg width="75" height="57" viewBox="0 0 75 57" fill="none" xmlns="http://www.w3.org/2000/svg">
<path d="M15.777 46.0526C12.0487 41.4593 9.92894 35.764 9.74405 29.8436C9.55915 23.9232 11.3194 18.106 14.7537 13.2876" stroke="#214557" stroke-width="2" stroke-miterlimit="10" stroke-linecap="round"/>
<path d="M56.5606 47.1729C51.9396 52.2654 45.5539 55.3948 38.7092 55.921C31.8646 56.4472 25.0781 54.3304 19.7376 50.0036" stroke="#214557" stroke-width="2" stroke-miterlimit="10" stroke-linecap="round"/>
<path d="M61.0474 17.5752C62.713 21.1516 63.5736 25.052 63.5679 28.9995C63.5679 29.8424 63.5298 30.6754 63.4536 31.4987" stroke="#214557" stroke-width="2" stroke-miterlimit="10" stroke-linecap="round"/>
<path d="M29.6093 2.92898C35.0575 1.4548 40.8294 1.73238 46.112 3.72262C51.3946 5.71286 55.9217 9.31546 59.0555 14.0229" stroke="#214557" stroke-width="2" stroke-miterlimit="10" stroke-linecap="round"/>
<path d="M39.3838 2.11804C39.3838 2.11804 34.6442 6.8726 36.7102 11.9929C38.7762 17.1132 36.4671 23.4526 31.2414 22.7211" stroke="#214557" stroke-width="2" stroke-linecap="round" stroke-linejoin="round"/>
<path d="M25.0435 21.624C25.0435 21.624 19.6963 18.5762 18.6025 23.8184C17.5088 29.0606 10.9049 30.2102 9.83183 26.6492" stroke="#214557" stroke-width="2" stroke-linecap="round" stroke-linejoin="round"/>
<path d="M46.255 3.76636C46.255 3.76636 37.9255 5.77546 42.9081 10.8958C45.1515 13.2011 45.2171 18.9419 44.3664 20.4049C43.5157 21.8678 41.3282 22.3554 41.3282 24.306C41.3282 26.2566 43.8803 29.914 48.0123 26.6223C52.1442 23.3307 55.6685 25.8909 56.5192 26.7443C57.3699 27.5976 60.8116 29.3556 63.2835 25.0631" stroke="#214557" stroke-width="2" stroke-miterlimit="10"/>
<path d="M12.4046 40.7483C12.4046 40.7483 18.1164 41.8614 19.2101 37.2287C20.3039 32.5961 25.6511 32.718 25.5296 38.4478C25.4081 44.1777 27.3525 47.2133 31.2414 47.7131C35.981 48.3227 38.623 44.5617 41.3282 44.2996C45.0956 43.9339 47.5979 50.8158 52.301 50.9718" stroke="#214557" stroke-width="2" stroke-miterlimit="10"/>
<path d="M31.2414 31.4989C31.2414 31.4989 29.297 39.9108 33.0643 39.7889C36.8317 39.667 39.6268 37.9602 39.3838 33.9371C39.1407 29.914 33.672 24.6718 31.2414 31.4989Z" stroke="#214557" stroke-width="2" stroke-miterlimit="10"/>
<path d="M13.5049 8.9422H25.0067C25.0067 8.9422 26.7949 8.86609 26.8121 7.08595C26.8265 5.53952 25.0067 4.97719 23.8344 5.06136C23.7434 2.44577 22.119 1.18051 19.8635 1.01217C17.608 0.843828 15.7125 2.44488 15.4415 4.38619C13.2262 3.12183 10.9333 3.87848 10.9275 6.41168C10.9275 7.6456 11.5482 8.28226 12.1391 8.60731C12.5542 8.831 13.0258 8.94663 13.5049 8.9422V8.9422Z" stroke="#FEC74F" stroke-width="2" stroke-linecap="round" stroke-linejoin="round"/>
<path d="M57.5887 4.97119H65.7311" stroke="#FEC74F" stroke-width="2" stroke-linecap="round" stroke-linejoin="round"/>
<path d="M61.0176 1.07349H73.0489" stroke="#FEC74F" stroke-width="2" stroke-linecap="round" stroke-linejoin="round"/>
<path d="M50.8093 1.07349H57.0072" stroke="#FEC74F" stroke-width="2" stroke-linecap="round" stroke-linejoin="round"/>
<path d="M59.5743 51.6323H70.6333" stroke="#FEC74F" stroke-width="2" stroke-linecap="round" stroke-linejoin="round"/>
<path d="M53.7241 55.6548H61.1373" stroke="#FEC74F" stroke-width="2" stroke-linecap="round" stroke-linejoin="round"/>
<path d="M13.8423 50.6395H4.97079" stroke="#FEC74F" stroke-width="2" stroke-linecap="round" stroke-linejoin="round"/>
<path d="M0.999634 54.6107H9.74965" stroke="#FEC74F" stroke-width="2" stroke-linecap="round" stroke-linejoin="round"/>
<path d="M13.1524 54.6107H18.4997" stroke="#FEC74F" stroke-width="2" stroke-linecap="round" stroke-linejoin="round"/>
<path d="M62.7894 42.697H50.5727C50.5727 42.697 48.672 42.6114 48.6537 40.6088C48.6384 38.869 50.5727 38.2364 51.8147 38.3311C51.9104 35.3886 53.6371 33.9652 56.0346 33.7758C58.4321 33.5864 60.4468 35.3876 60.7349 37.5715C63.0948 36.1491 65.528 37.0004 65.531 39.8502C65.531 41.2384 64.8713 41.9546 64.2432 42.3203C63.8014 42.5723 63.2993 42.7024 62.7894 42.697V42.697Z" stroke="#FEC74F" stroke-width="2" stroke-linecap="round" stroke-linejoin="round"/>
</svg>
