<svg width="42" height="32" viewBox="0 0 42 32" fill="none" xmlns="http://www.w3.org/2000/svg">
<path d="M9.06059 25.5741C7.02699 23.0687 5.87075 19.9622 5.7699 16.7329C5.66905 13.5036 6.62917 10.3305 8.50244 7.70233" stroke="white" stroke-width="1.5" stroke-miterlimit="10" stroke-linecap="round"/>
<path d="M31.306 26.1852C28.7855 28.963 25.3023 30.6699 21.5689 30.9569C17.8354 31.2439 14.1337 30.0893 11.2207 27.7292" stroke="white" stroke-width="1.5" stroke-miterlimit="10" stroke-linecap="round"/>
<path d="M33.7529 10.041C34.6615 11.9918 35.1309 14.1193 35.1277 16.2725C35.1277 16.7322 35.107 17.1866 35.0654 17.6357" stroke="white" stroke-width="1.5" stroke-miterlimit="10" stroke-linecap="round"/>
<path d="M16.6055 2.05214C19.5772 1.24804 22.7255 1.39945 25.6069 2.48504C28.4884 3.57062 30.9577 5.53568 32.6671 8.10339" stroke="white" stroke-width="1.5" stroke-miterlimit="10" stroke-linecap="round"/>
<path d="M21.9364 1.60986C21.9364 1.60986 19.3512 4.20326 20.4781 6.99614C21.605 9.78903 20.3455 13.2469 17.4951 12.8479" stroke="white" stroke-width="1.5" stroke-linecap="round" stroke-linejoin="round"/>
<path d="M14.1147 12.2494C14.1147 12.2494 11.198 10.587 10.6014 13.4464C10.0048 16.3058 6.40271 16.9328 5.81738 14.9905" stroke="white" stroke-width="1.5" stroke-linecap="round" stroke-linejoin="round"/>
<path d="M25.6843 2.50891C25.6843 2.50891 21.1409 3.60479 23.8588 6.39767C25.0824 7.65513 25.1182 10.7865 24.6542 11.5845C24.1902 12.3824 22.997 12.6484 22.997 13.7124C22.997 14.7763 24.3891 16.7712 26.6428 14.9758C28.8966 13.1804 30.819 14.5768 31.283 15.0423C31.747 15.5078 33.6243 16.4667 34.9726 14.1253" stroke="white" stroke-width="1.5" stroke-miterlimit="10"/>
<path d="M7.2207 22.6809C7.2207 22.6809 10.3362 23.288 10.9328 20.7611C11.5294 18.2342 14.4461 18.3007 14.3798 21.4261C14.3135 24.5514 15.3741 26.2072 17.4953 26.4799C20.0806 26.8123 21.5217 24.7609 22.9972 24.6179C25.0522 24.4184 26.417 28.1722 28.9824 28.2573" stroke="white" stroke-width="1.5" stroke-miterlimit="10"/>
<path d="M17.4953 17.6358C17.4953 17.6358 16.4347 22.2241 18.4896 22.1576C20.5446 22.0911 22.0692 21.1601 21.9366 18.9657C21.804 16.7713 18.8211 13.9119 17.4953 17.6358Z" stroke="white" stroke-width="1.5" stroke-miterlimit="10"/>
<path d="M7.82087 5.33211H14.0946C14.0946 5.33211 15.0699 5.29059 15.0793 4.31961C15.0872 3.4761 14.0946 3.16937 13.4551 3.21529C13.4055 1.7886 12.5195 1.09846 11.2892 1.00664C10.0589 0.914815 9.02504 1.78811 8.8772 2.84701C7.66884 2.15736 6.41817 2.57008 6.41504 3.95183C6.41504 4.62487 6.75357 4.97214 7.0759 5.14944C7.30231 5.27145 7.55955 5.33453 7.82087 5.33211V5.33211Z" stroke="#FEC74F" stroke-width="1.5" stroke-linecap="round" stroke-linejoin="round"/>
<path d="M31.8672 3.16608H36.3085" stroke="#FEC74F" stroke-width="1.5" stroke-linecap="round" stroke-linejoin="round"/>
<path d="M33.7373 1.0401H40.2998" stroke="#FEC74F" stroke-width="1.5" stroke-linecap="round" stroke-linejoin="round"/>
<path d="M28.1689 1.0401H31.5496" stroke="#FEC74F" stroke-width="1.5" stroke-linecap="round" stroke-linejoin="round"/>
<path d="M32.9502 28.6176H38.9824" stroke="#FEC74F" stroke-width="1.5" stroke-linecap="round" stroke-linejoin="round"/>
<path d="M29.7588 30.8117H33.8024" stroke="#FEC74F" stroke-width="1.5" stroke-linecap="round" stroke-linejoin="round"/>
<path d="M8.00504 28.0761H3.16602" stroke="#FEC74F" stroke-width="1.5" stroke-linecap="round" stroke-linejoin="round"/>
<path d="M1 30.2422H5.77274" stroke="#FEC74F" stroke-width="1.5" stroke-linecap="round" stroke-linejoin="round"/>
<path d="M7.62891 30.2422H10.5456" stroke="#FEC74F" stroke-width="1.5" stroke-linecap="round" stroke-linejoin="round"/>
<path d="M34.7036 23.7439H28.04C28.04 23.7439 27.0032 23.6971 26.9932 22.6048C26.9849 21.6559 28.04 21.3108 28.7174 21.3624C28.7696 19.7574 29.7114 18.981 31.0192 18.8777C32.3269 18.7744 33.4259 19.7569 33.583 20.9481C34.8702 20.1723 36.1974 20.6366 36.199 22.191C36.199 22.9482 35.8392 23.3389 35.4966 23.5383C35.2556 23.6758 34.9817 23.7468 34.7036 23.7439V23.7439Z" stroke="#FEC74F" stroke-width="1.5" stroke-linecap="round" stroke-linejoin="round"/>
</svg>
